M48
; DRILL file {KiCad (6.0.0-0)} date Thursday, April 20, 2023 at 04:33:32 PM
; FORMAT={-:-/ absolute / inch / decimal}
; #@! TF.CreationDate,2023-04-20T16:33:32-07:00
; #@! TF.GenerationSoftware,Kicad,Pcbnew,(6.0.0-0)
; #@! TF.FileFunction,Plated,1,2,PTH
FMAT,2
INCH
; #@! TA.AperFunction,Plated,PTH,ViaDrill
T1C0.0130
; #@! TA.AperFunction,Plated,PTH,ViaDrill
T2C0.0200
; #@! TA.AperFunction,Plated,PTH,ComponentDrill
T3C0.0295
; #@! TA.AperFunction,Plated,PTH,ComponentDrill
T4C0.0394
%
G90
G05
T1
X4.0276Y-4.0236
X4.0276Y-4.4764
X4.3228Y-3.85
X4.3819Y-4.2441
X4.8071Y-4.2441
X4.8504Y-4.0669
X4.8504Y-4.4409
X5.372Y-4.1299
X5.372Y-4.2421
X5.4528Y-4.3189
X5.4528Y-4.4449
X5.5512Y-4.0236
X5.5984Y-4.2992
X5.7776Y-4.248
X5.85Y-4.6
X5.95Y-4.6
X6.055Y-4.6
X6.0551Y-4.0236
T2
X4.2992Y-4.1142
T3
X4.126Y-3.9252
X4.2047Y-3.9252
T4
X4.4Y-3.85
X4.4Y-3.95
X4.4Y-4.55
X4.4Y-4.65
X4.5Y-3.85
X4.5Y-3.95
X4.5Y-4.55
X4.5Y-4.65
X4.6Y-3.85
X4.6Y-3.95
X4.6Y-4.55
X4.6Y-4.65
X4.7Y-3.85
X4.7Y-3.95
X4.7Y-4.55
X4.7Y-4.65
X4.8Y-3.85
X4.8Y-3.95
X4.8Y-4.55
X4.8Y-4.65
X4.9Y-3.85
X4.9Y-3.95
X4.9Y-4.55
X4.9Y-4.65
X5.0Y-3.85
X5.0Y-3.95
X5.0Y-4.55
X5.0Y-4.65
X5.1Y-3.85
X5.1Y-3.95
X5.1Y-4.55
X5.1Y-4.65
X5.2Y-3.85
X5.2Y-3.95
X5.2Y-4.55
X5.2Y-4.65
X5.3Y-3.85
X5.3Y-3.95
X5.3Y-4.55
X5.3Y-4.65
X5.4Y-3.85
X5.4Y-3.95
X5.4Y-4.55
X5.4Y-4.65
X5.5Y-3.85
X5.5Y-3.95
X5.5Y-4.55
X5.5Y-4.65
X5.6Y-3.85
X5.6Y-3.95
X5.6Y-4.55
X5.6Y-4.65
X5.7Y-3.85
X5.7Y-3.95
X5.7Y-4.05
X5.7Y-4.15
X5.7Y-4.25
X5.7Y-4.35
X5.7Y-4.45
X5.7Y-4.55
X5.7Y-4.65
X5.8Y-3.85
X5.8Y-3.95
X5.8Y-4.55
X5.8Y-4.65
X5.9Y-3.85
X5.9Y-3.95
X5.9Y-4.55
X5.9Y-4.65
X6.0Y-4.55
X6.0Y-4.65
T0
M30
