G04 #@! TF.GenerationSoftware,KiCad,Pcbnew,(6.0.0-0)*
G04 #@! TF.CreationDate,2023-04-20T16:33:35-07:00*
G04 #@! TF.ProjectId,ItsyBitsy breadboard,49747379-4269-4747-9379-206272656164,3.0.0*
G04 #@! TF.SameCoordinates,Original*
G04 #@! TF.FileFunction,Profile,NP*
%FSLAX46Y46*%
G04 Gerber Fmt 4.6, Leading zero omitted, Abs format (unit mm)*
G04 Created by KiCad (PCBNEW (6.0.0-0)) date 2023-04-20 16:33:35*
%MOMM*%
%LPD*%
G01*
G04 APERTURE LIST*
G04 #@! TA.AperFunction,Profile*
%ADD10C,0.100000*%
G04 #@! TD*
G04 APERTURE END LIST*
D10*
X97282000Y-96520000D02*
X159512000Y-96520000D01*
X97282000Y-96520000D02*
G75*
G03*
X96647000Y-97155000I-1J-634999D01*
G01*
X96647000Y-118745000D02*
G75*
G03*
X97282000Y-119380000I634999J-1D01*
G01*
X96647000Y-101600000D02*
G75*
G03*
X97282000Y-102235000I634999J-1D01*
G01*
X97282000Y-113665000D02*
G75*
G03*
X96647000Y-114300000I-1J-634999D01*
G01*
X96647000Y-118745000D02*
X96647000Y-114300000D01*
X101092000Y-113030000D02*
X101092000Y-102870000D01*
X101092000Y-102870000D02*
G75*
G03*
X100457000Y-102235000I-634999J1D01*
G01*
X100457000Y-113665000D02*
G75*
G03*
X101092000Y-113030000I1J634999D01*
G01*
X97282000Y-102235000D02*
X100457000Y-102235000D01*
X97282000Y-113665000D02*
X100457000Y-113665000D01*
X97282000Y-119380000D02*
X159512000Y-119380000D01*
X96647000Y-101600000D02*
X96647000Y-97155000D01*
X160147000Y-101600000D02*
X160147000Y-97155000D01*
X160147000Y-114300000D02*
G75*
G03*
X159512000Y-113665000I-634999J1D01*
G01*
X160147000Y-97155000D02*
G75*
G03*
X159512000Y-96520000I-634999J1D01*
G01*
X159512000Y-113665000D02*
X156337000Y-113665000D01*
X156337000Y-102235000D02*
G75*
G03*
X155702000Y-102870000I-1J-634999D01*
G01*
X159512000Y-102235000D02*
X156337000Y-102235000D01*
X155702000Y-102870000D02*
X155702000Y-113030000D01*
X159512000Y-119380000D02*
G75*
G03*
X160147000Y-118745000I1J634999D01*
G01*
X155702000Y-113030000D02*
G75*
G03*
X156337000Y-113665000I634999J-1D01*
G01*
X159512000Y-102235000D02*
G75*
G03*
X160147000Y-101600000I1J634999D01*
G01*
X160147000Y-118745000D02*
X160147000Y-114300000D01*
M02*
