G04 #@! TF.GenerationSoftware,KiCad,Pcbnew,(6.0.0-0)*
G04 #@! TF.CreationDate,2023-05-15T09:27:01-07:00*
G04 #@! TF.ProjectId,ItsyBitsy breadboard,49747379-4269-4747-9379-206272656164,3.0.1*
G04 #@! TF.SameCoordinates,Original*
G04 #@! TF.FileFunction,Copper,L1,Top*
G04 #@! TF.FilePolarity,Positive*
%FSLAX46Y46*%
G04 Gerber Fmt 4.6, Leading zero omitted, Abs format (unit mm)*
G04 Created by KiCad (PCBNEW (6.0.0-0)) date 2023-05-15 09:27:01*
%MOMM*%
%LPD*%
G01*
G04 APERTURE LIST*
G04 Aperture macros list*
%AMRoundRect*
0 Rectangle with rounded corners*
0 $1 Rounding radius*
0 $2 $3 $4 $5 $6 $7 $8 $9 X,Y pos of 4 corners*
0 Add a 4 corners polygon primitive as box body*
4,1,4,$2,$3,$4,$5,$6,$7,$8,$9,$2,$3,0*
0 Add four circle primitives for the rounded corners*
1,1,$1+$1,$2,$3*
1,1,$1+$1,$4,$5*
1,1,$1+$1,$6,$7*
1,1,$1+$1,$8,$9*
0 Add four rect primitives between the rounded corners*
20,1,$1+$1,$2,$3,$4,$5,0*
20,1,$1+$1,$4,$5,$6,$7,0*
20,1,$1+$1,$6,$7,$8,$9,0*
20,1,$1+$1,$8,$9,$2,$3,0*%
G04 Aperture macros list end*
G04 #@! TA.AperFunction,ComponentPad*
%ADD10R,1.700000X1.700000*%
G04 #@! TD*
G04 #@! TA.AperFunction,ComponentPad*
%ADD11O,1.700000X1.700000*%
G04 #@! TD*
G04 #@! TA.AperFunction,ComponentPad*
%ADD12RoundRect,0.250000X0.350000X0.625000X-0.350000X0.625000X-0.350000X-0.625000X0.350000X-0.625000X0*%
G04 #@! TD*
G04 #@! TA.AperFunction,ComponentPad*
%ADD13O,1.200000X1.750000*%
G04 #@! TD*
G04 #@! TA.AperFunction,SMDPad,CuDef*
%ADD14RoundRect,0.250000X-0.250000X-0.475000X0.250000X-0.475000X0.250000X0.475000X-0.250000X0.475000X0*%
G04 #@! TD*
G04 #@! TA.AperFunction,SMDPad,CuDef*
%ADD15RoundRect,0.243750X-0.243750X-0.456250X0.243750X-0.456250X0.243750X0.456250X-0.243750X0.456250X0*%
G04 #@! TD*
G04 #@! TA.AperFunction,SMDPad,CuDef*
%ADD16RoundRect,0.250000X0.450000X-0.262500X0.450000X0.262500X-0.450000X0.262500X-0.450000X-0.262500X0*%
G04 #@! TD*
G04 #@! TA.AperFunction,SMDPad,CuDef*
%ADD17RoundRect,0.250000X0.262500X0.450000X-0.262500X0.450000X-0.262500X-0.450000X0.262500X-0.450000X0*%
G04 #@! TD*
G04 #@! TA.AperFunction,SMDPad,CuDef*
%ADD18RoundRect,0.250000X-0.262500X-0.450000X0.262500X-0.450000X0.262500X0.450000X-0.262500X0.450000X0*%
G04 #@! TD*
G04 #@! TA.AperFunction,SMDPad,CuDef*
%ADD19RoundRect,0.150000X0.512500X0.150000X-0.512500X0.150000X-0.512500X-0.150000X0.512500X-0.150000X0*%
G04 #@! TD*
G04 #@! TA.AperFunction,SMDPad,CuDef*
%ADD20RoundRect,0.150000X0.625000X-0.150000X0.625000X0.150000X-0.625000X0.150000X-0.625000X-0.150000X0*%
G04 #@! TD*
G04 #@! TA.AperFunction,SMDPad,CuDef*
%ADD21RoundRect,0.250000X0.650000X-0.350000X0.650000X0.350000X-0.650000X0.350000X-0.650000X-0.350000X0*%
G04 #@! TD*
G04 #@! TA.AperFunction,ViaPad*
%ADD22C,0.685800*%
G04 #@! TD*
G04 #@! TA.AperFunction,ViaPad*
%ADD23C,1.016000*%
G04 #@! TD*
G04 #@! TA.AperFunction,Conductor*
%ADD24C,0.254000*%
G04 #@! TD*
G04 #@! TA.AperFunction,Conductor*
%ADD25C,0.152400*%
G04 #@! TD*
G04 APERTURE END LIST*
D10*
X111760000Y-115570000D03*
D11*
X114300000Y-115570000D03*
X116840000Y-115570000D03*
X119380000Y-115570000D03*
X121920000Y-115570000D03*
X124460000Y-115570000D03*
X127000000Y-115570000D03*
X129540000Y-115570000D03*
X132080000Y-115570000D03*
X134620000Y-115570000D03*
X137160000Y-115570000D03*
X139700000Y-115570000D03*
X142240000Y-115570000D03*
X144780000Y-115570000D03*
X147320000Y-115570000D03*
X149860000Y-115570000D03*
X152400000Y-115570000D03*
D10*
X111760000Y-100330000D03*
D11*
X114300000Y-100330000D03*
X116840000Y-100330000D03*
X119380000Y-100330000D03*
X121920000Y-100330000D03*
X124460000Y-100330000D03*
X127000000Y-100330000D03*
X129540000Y-100330000D03*
X132080000Y-100330000D03*
X134620000Y-100330000D03*
X137160000Y-100330000D03*
X139700000Y-100330000D03*
X142240000Y-100330000D03*
X144780000Y-100330000D03*
X147320000Y-100330000D03*
X149860000Y-100330000D03*
D10*
X144780000Y-113030000D03*
D11*
X144780000Y-110490000D03*
X144780000Y-107950000D03*
X144780000Y-105410000D03*
X144780000Y-102870000D03*
D12*
X106800000Y-99700000D03*
D13*
X104800000Y-99700000D03*
D10*
X111760000Y-118110000D03*
D11*
X114300000Y-118110000D03*
X116840000Y-118110000D03*
X119380000Y-118110000D03*
X121920000Y-118110000D03*
X124460000Y-118110000D03*
X127000000Y-118110000D03*
X129540000Y-118110000D03*
X132080000Y-118110000D03*
X134620000Y-118110000D03*
X137160000Y-118110000D03*
X139700000Y-118110000D03*
X142240000Y-118110000D03*
X144780000Y-118110000D03*
X147320000Y-118110000D03*
X149860000Y-118110000D03*
X152400000Y-118110000D03*
D10*
X111760000Y-97790000D03*
D11*
X114300000Y-97790000D03*
X116840000Y-97790000D03*
X119380000Y-97790000D03*
X121920000Y-97790000D03*
X124460000Y-97790000D03*
X127000000Y-97790000D03*
X129540000Y-97790000D03*
X132080000Y-97790000D03*
X134620000Y-97790000D03*
X137160000Y-97790000D03*
X139700000Y-97790000D03*
X142240000Y-97790000D03*
X144780000Y-97790000D03*
X147320000Y-97790000D03*
X149860000Y-97790000D03*
D14*
X116750000Y-104500000D03*
X118650000Y-104500000D03*
D15*
X104862500Y-103950000D03*
X106737500Y-103950000D03*
X104812500Y-115650000D03*
X106687500Y-115650000D03*
D16*
X116879000Y-109177500D03*
X116879000Y-107352500D03*
D17*
X114612500Y-112000000D03*
X112787500Y-112000000D03*
D18*
X118887500Y-106614000D03*
X120712500Y-106614000D03*
X112918500Y-108900000D03*
X114743500Y-108900000D03*
D17*
X120712500Y-108900000D03*
X118887500Y-108900000D03*
D19*
X114737500Y-106350000D03*
X114737500Y-105400000D03*
X114737500Y-104450000D03*
X112462500Y-104450000D03*
X112462500Y-106350000D03*
D20*
X150400000Y-109500000D03*
X150400000Y-108500000D03*
X150400000Y-107500000D03*
X150400000Y-106500000D03*
D21*
X154275000Y-105200000D03*
X154275000Y-110800000D03*
D22*
X102300000Y-113700000D03*
X151085000Y-99100000D03*
X148545000Y-99100000D03*
X146100000Y-116840000D03*
X153600000Y-108500000D03*
X138400000Y-101500000D03*
X141000000Y-102200000D03*
X111300000Y-107800000D03*
X153797000Y-116840000D03*
X148590000Y-116840000D03*
X123200000Y-103300000D03*
X151130000Y-116840000D03*
X136450000Y-107750000D03*
X142200000Y-109200000D03*
X136450000Y-104900000D03*
X122100000Y-107800000D03*
D23*
X109200000Y-104500000D03*
D24*
X104812500Y-115650000D02*
X102950000Y-115650000D01*
X102950000Y-115650000D02*
X102300000Y-115000000D01*
X102300000Y-115000000D02*
X102300000Y-113700000D01*
D25*
X148544991Y-99100005D02*
X151084991Y-99100005D01*
X146100013Y-116840000D02*
X148590000Y-116840000D01*
X151130000Y-116840000D02*
X153797000Y-116840000D01*
X148590000Y-116840000D02*
X151130000Y-116840000D01*
D24*
X150400000Y-109500000D02*
X152600000Y-109500000D01*
X152600000Y-109500000D02*
X153600000Y-108500000D01*
X138400000Y-101500000D02*
X138400000Y-101800000D01*
X138400000Y-101800000D02*
X138800000Y-102200000D01*
X138800000Y-102200000D02*
X141000000Y-102200000D01*
X118650000Y-104500000D02*
X122700000Y-104500000D01*
X122700000Y-104500000D02*
X123200000Y-104000000D01*
X123200000Y-104000000D02*
X123200000Y-103300000D01*
X118887500Y-108900000D02*
X119400000Y-108900000D01*
X119400000Y-108900000D02*
X119800000Y-108500000D01*
X119800000Y-108500000D02*
X119800000Y-104900000D01*
X119800000Y-104900000D02*
X119400000Y-104500000D01*
X119400000Y-104500000D02*
X118650000Y-104500000D01*
X114743500Y-108900000D02*
X114743500Y-108856500D01*
X115315520Y-108284480D02*
X118271980Y-108284480D01*
X114743500Y-108856500D02*
X115315520Y-108284480D01*
X118271980Y-108284480D02*
X118887500Y-108900000D01*
X114737500Y-105400000D02*
X111500000Y-105400000D01*
X111500000Y-105400000D02*
X111300000Y-105600000D01*
X111300000Y-105600000D02*
X111300000Y-107800000D01*
D25*
X142300000Y-107750000D02*
X143350000Y-106700000D01*
X136450000Y-107750000D02*
X142300000Y-107750000D01*
X149600000Y-106500000D02*
X150400000Y-106500000D01*
X149400000Y-106700000D02*
X149600000Y-106500000D01*
X143350000Y-106700000D02*
X149400000Y-106700000D01*
X148851217Y-107500000D02*
X147151217Y-109200000D01*
X150400000Y-107500000D02*
X148851217Y-107500000D01*
X147151217Y-109200000D02*
X142200000Y-109200000D01*
D24*
X114650000Y-114017919D02*
X114650000Y-112000000D01*
X141050000Y-110800000D02*
X117700000Y-110800000D01*
X141970511Y-111720511D02*
X141050000Y-110800000D01*
X114300000Y-114367919D02*
X114300000Y-115570000D01*
X116500000Y-112000000D02*
X114650000Y-112000000D01*
X149000000Y-108500000D02*
X145779489Y-111720511D01*
X114300000Y-114367919D02*
X114650000Y-114017919D01*
X117700000Y-110800000D02*
X116500000Y-112000000D01*
X145779489Y-111720511D02*
X141970511Y-111720511D01*
X150400000Y-108500000D02*
X149000000Y-108500000D01*
D25*
X142300000Y-104400000D02*
X141800000Y-104900000D01*
X141800000Y-104900000D02*
X136450000Y-104900000D01*
X142300000Y-102810000D02*
X142300000Y-104400000D01*
X144780000Y-100330000D02*
X142300000Y-102810000D01*
D24*
X116650000Y-104450000D02*
X116700000Y-104500000D01*
X117300000Y-106200000D02*
X118436000Y-106200000D01*
X118436000Y-106200000D02*
X118850000Y-106614000D01*
X111130000Y-99700000D02*
X111760000Y-100330000D01*
X114000000Y-102800000D02*
X114700000Y-103500000D01*
X111760000Y-100330000D02*
X111760000Y-102160000D01*
X106800000Y-99700000D02*
X111130000Y-99700000D01*
X116700000Y-105600000D02*
X117300000Y-106200000D01*
X114700000Y-104450000D02*
X116650000Y-104450000D01*
X111760000Y-102160000D02*
X112400000Y-102800000D01*
X112400000Y-102800000D02*
X114000000Y-102800000D01*
X111760000Y-99226000D02*
X111760000Y-97790000D01*
X111760000Y-100330000D02*
X111760000Y-99226000D01*
X114700000Y-103500000D02*
X114700000Y-104450000D01*
X116700000Y-104500000D02*
X116700000Y-105600000D01*
D25*
X110600000Y-110400000D02*
X116400000Y-110400000D01*
X109700000Y-106300000D02*
X110300000Y-106900000D01*
X105400000Y-106300000D02*
X109700000Y-106300000D01*
X110300000Y-110100000D02*
X110600000Y-110400000D01*
X116879000Y-109921000D02*
X116879000Y-109215000D01*
X104700000Y-104112500D02*
X104862500Y-103950000D01*
X104700000Y-105600000D02*
X105400000Y-106300000D01*
X116400000Y-110400000D02*
X116879000Y-109921000D01*
X104700000Y-105600000D02*
X104700000Y-104112500D01*
X110300000Y-106900000D02*
X110300000Y-110100000D01*
X107200000Y-115650000D02*
X108100000Y-114750000D01*
X106850000Y-115650000D02*
X107200000Y-115650000D01*
X108700000Y-112000000D02*
X112750000Y-112000000D01*
X108100000Y-114750000D02*
X108100000Y-112600000D01*
X108100000Y-112600000D02*
X108700000Y-112000000D01*
X120750000Y-106614000D02*
X120750000Y-107950000D01*
X120900000Y-107800000D02*
X120750000Y-107950000D01*
X122100000Y-107800000D02*
X120900000Y-107800000D01*
X120750000Y-107950000D02*
X120750000Y-108900000D01*
X115914000Y-106350000D02*
X116879000Y-107315000D01*
X114700000Y-106350000D02*
X115914000Y-106350000D01*
X112500000Y-108519000D02*
X112881000Y-108900000D01*
X112500000Y-106350000D02*
X112500000Y-108519000D01*
D24*
X106737500Y-103950000D02*
X108650000Y-103950000D01*
X109250000Y-104450000D02*
X112500000Y-104450000D01*
X109200000Y-104500000D02*
X109250000Y-104450000D01*
X108650000Y-103950000D02*
X109200000Y-104500000D01*
M02*
